<?xml version="1.0" encoding="UTF-8"?> <svg xmlns="http://www.w3.org/2000/svg" width="732.46" height="172.977" viewBox="0 0 732.46 172.977"><g id="logo-alexandre-_1_" transform="translate(-165.378 654)"><path id="Caminho_1442" data-name="Caminho 1442" d="M299.4-650c-16.2,8.2-32.5,22.1-65.5,55.8l-24.8,25.4-9.2.4c-12.7.6-18.8,2.5-23.8,7.6-5.8,5.7-5.4,6.9,1.5,4.6,6.4-2.2,19.9-2.2,19.9-.1,0,.7-4.8,7.4-10.6,15-10.9,14.3-20,27.4-21.2,30.7-1.9,4.9,4.8,5.9,15.2,2.3l6.5-2.2,2.1-7c3.7-12.1,10.5-23.3,20.3-33.5l5.7-5.9,28.4-.4,28.3-.3-.6,10.5c-.4,5.8-.9,13.7-1.2,17.6l-.5,7,3.2-3.8c3.9-4.6,7.7-6.7,12.3-6.7,4.5,0,5.2-1.3,6-11.5a347.509,347.509,0,0,1,21.5-93.4c2.8-7.3,5.1-13.9,5.1-14.7,0-1-1.5-1.4-5.4-1.4C308.3-654,305.6-653.2,299.4-650ZM289-628.8c-.1,3.1-13.5,58.6-14.4,59.5-1.1,1.1-48.6,1.7-48.6.6,0-1.3,21.4-25.4,29.7-33.5,9.1-8.9,31.6-28.8,32.6-28.8C288.7-631,289-630,289-628.8Z" fill="#070672"></path><path id="Caminho_1443" data-name="Caminho 1443" d="M350.5-638.2c-2.1,1.2-5.8,1.7-12.5,1.8-9.2.2-9.5.3-9.8,2.6-.4,3.5,2.9,6,8.8,6.6,2.7.2,5,.5,5,.7,0,.1-2.1,5.7-4.6,12.6-11.5,31.2-20.4,60-20.4,65.9a10.184,10.184,0,0,0,2.1,5.4c4.8,6.1,19.3,1.7,32.9-9.9l6.5-5.6,1.1,5.3c1.4,6.9,2.8,9.5,6.7,11.8,4.9,3,13,2.6,24.1-1.1,15.1-5,27.7-12.8,43.4-26.7,5.1-4.5,8.7-7.1,9.3-6.5.5.5,1.2,3.7,1.5,7l.7,6.2-9.7,10c-10.1,10.4-14.3,17.3-13.2,21.7,1,3.7,3.1,2.9,6.2-2.4,3.3-5.7,11-15.6,15.4-19.7,3-2.8,3.3-2.9,4.4-1.1,5.4,8.8,10.1,12.6,15.5,12.6,3.7,0,12.6-3.9,21.5-9.5,4.8-3,8.9-5.5,9.2-5.5.2,0,.4,3.5.4,7.8,0,6.4.4,8.2,1.8,9.5,6.2,5.6,23.4-3.8,39.2-21.2,4-4.4,7.6-8.1,8-8.1s.1,3-.6,6.7c-1.6,8.3-1.8,15.8-.4,18.4,1.6,2.8,7.1,2.4,14.4-1.1,3.3-1.6,13-8.4,21.4-15,8.5-6.7,15.5-12,15.8-11.8.2.3-1.9,7.3-4.7,15.7-4.7,14-5,15.4-3.5,16.9,2.3,2.3,6.5.5,8.9-3.8,6.5-11.8,35.4-44.4,41.7-47,6.5-2.7,7.5,2.2,3.6,17.8-3.9,15.7-5,28.8-2.6,31.7,3.2,3.9,9.8,1.1,23.5-9.9a70.887,70.887,0,0,1,7.6-5.6c.4,0,.9,3.1,1.1,6.9.6,11.8,5.5,14.1,16.3,7.5,7.4-4.4,12.7-8.7,23.1-18.6,4.5-4.3,8.3-7.8,8.6-7.8s-.3,3.4-1.3,7.5a126.679,126.679,0,0,0-2.4,12.9c-.6,4.7-.4,5.7,1.5,7.6,1.7,1.7,2.9,2.1,5.2,1.6,6.3-1.2,16.1-7.1,29-17.4,7.3-5.7,13.9-10.9,14.6-11.5,2.7-2.1,2.1.4-2.4,9.9-6.8,14.6-7.6,17-5.9,18.4s6.9.5,8.4-1.4a57.666,57.666,0,0,0,3.6-6.1,93.033,93.033,0,0,1,6.9-10.4c6.2-8,30.3-31,33.3-31.7a10.162,10.162,0,0,1,6.1,1l3.5,1.7,3.3-3.2c4-3.9,4.9-6.1,3.4-8.9-1.8-3.3-6.8-2.6-14.1,2.1-7.4,4.8-21.7,16.7-25.5,21.3-4.8,5.6-10.6,11.8-10.9,11.4-.2-.2,1.5-4.1,3.7-8.7,2.2-4.7,4.9-10.9,5.9-13.9,2.2-6.5,1.4-8.2-3.7-8.2-3.7,0-5.6,2.1-6.8,7.5-.8,3.4-6.4,9-23.6,23.5-13.6,11.4-17.5,14-21.1,14-3.7,0-5.2-2.2-4.4-6.2.4-1.8,8.3-20.3,17.7-41.1,9.4-20.7,16.9-38,16.6-38.3s-2.5,0-4.9.6c-4.7,1.3-12.9,1.6-17.4.6-4.4-.9-6.2.6-4.7,3.8,1.3,3,4.8,4.6,9.8,4.6,1.9,0,3.4.4,3.4,1,0,.5-3,7.1-6.7,14.5-4.6,9.1-7.3,13.5-8.4,13.5a20.952,20.952,0,0,1-5.3-1.5c-6.1-2.6-16.5-2.1-23.3.9-8.3,3.9-11.5,6.6-20,17.4-13.8,17.5-26.8,30.2-30.9,30.2-4.3,0-4.4-3.6-.4-21.3,6-27.1,3.3-33.8-10.9-27.2-9.9,4.6-22.3,16.2-32.2,30-3.2,4.5-5.8,6.1-4.4,2.7,2.3-5.5,8.5-24.9,8.5-26.4,0-1.1-1.1-2.3-2.7-2.9-3.5-1.3-7,1.2-8.8,6.3-.8,2.5-3.9,6.3-9,11-8.7,8.2-28,23.5-31,24.7-2.8,1.1-5.5.2-6.6-2.3-1.5-3.1,3.8-19.4,10.8-33.3,3.1-6.2,5.3-11.6,4.9-12s-3.7.3-7.4,1.5c-6.3,2.2-6.9,2.2-11.1.8-9.4-3.4-20.3-1.3-30,5.8-2.8,2.1-9.4,8.8-14.8,14.9-12.7,14.7-16.5,18.1-23.6,21.7-7.8,3.9-13.3,4-17.7.4-3.4-2.9-6-7.3-6-10.1,0-1,3.7-5,8.5-9.1,9.8-8.4,18.7-18.7,18.3-21.1-.2-1.1-1.4-1.6-3.8-1.6-3.1,0-3.9.7-9.1,8-6.4,9-15.5,18.3-16.6,17.1-.5-.4-.9-6.6-1.1-13.8l-.4-13-3.1.6c-3.7.7-7.7,4.8-7.7,7.7,0,3.5-2.7,7.4-9.6,13.9-15.5,14.4-32.6,24.7-45.9,27.5-9.6,2-11.2,1.9-14.2-1.1-2.2-2.2-2.5-3.2-2.1-7.5.3-2.8.9-5.4,1.4-5.9.6-.6,5.7-1.9,11.4-3.1,15.5-3.1,24.4-8,31.8-17.3,2.5-3.2,3-10,.9-12.7-6.4-8.2-22.9-6.6-35.9,3.6a61.7,61.7,0,0,0-10.4,11.1,97.786,97.786,0,0,1-20.3,21.6c-7.5,6-14.5,9.8-18.2,9.8a5.074,5.074,0,0,1-3.4-2.4c-2.1-3.1-2.5-1.5,13.2-49.4,6.9-21.1,12.3-38.5,12.1-38.7C353.7-639.7,352.2-639.1,350.5-638.2ZM406.1-595c4.6,2.5,1,12.6-7,19.6-3.5,3.1-11.8,6.2-18.8,7l-5.6.7.7-3.4c1.5-8,13-20.1,22.1-23.3C402.5-596.2,403.6-596.3,406.1-595Zm138.6,5c3.4,1.7,6.3,3.7,6.6,4.4.3.8-5.8,8-15.4,17.9-12.3,12.8-17.2,17.2-21.5,19.3l-5.5,2.7-2.1-2c-1.7-1.8-1.9-2.8-1.3-7.4.9-6.8,9.4-23.4,15.1-29.8C528.5-593.7,534.7-595,544.7-590Zm178.2.3c2.3,1.5,4.1,3.3,4.1,4,0,.8-6.2,7.6-13.7,15.3C689.1-545.8,681-541.7,681-554c0-3.8,1.1-7.1,5.4-15.7,5.8-11.4,12.2-19.3,17.9-21.9C709.3-593.8,718-592.9,722.9-589.7Z" fill="#070672"></path><path id="Caminho_1444" data-name="Caminho 1444" d="M854.4-599c-12.3,2.6-27.4,14.9-33.2,27a78.66,78.66,0,0,0-4.6,14.2c-2,9.6-.9,14,4.4,17.6,3.1,2.2,4.2,2.3,10.5,1.8,18.1-1.5,37.1-11.4,55.2-29.1,6.4-6.2,8.3-8.6,8.3-10.8,0-1.5-.3-2.7-.8-2.7-.4,0-3.9,3.2-7.7,7.1-18.1,18.3-44.5,32.6-53.8,29-5.1-2-7.3-12.7-3.4-15.9.7-.6,5.5-2,10.7-3.1,12.5-2.8,20.9-6.8,27-13.1,6.2-6.4,7.9-11.3,5.6-16.1a13.174,13.174,0,0,0-3.6-4.7C866.2-599.5,859.4-600.1,854.4-599Zm8.4,6.2c3.8,3.8-1.5,14.8-9.5,19.8-7.6,4.8-21,7.9-22.7,5.1-1-1.6,4.8-11.6,9.6-16.4C847.8-591.9,859.4-596.2,862.8-592.8Z" fill="#070672"></path><path id="Caminho_1445" data-name="Caminho 1445" d="M695.1-525.9c-2,1.6-4,1.9-15,1.9-12.6,0-15.1.6-15.1,3.7,0,.9,1.3,1,4.9.6,8.3-1,8.1-1.5,4.5,16.2-2.5,12.5-2.9,15.7-1.9,16.2,2.1.8,4.8-1.2,5.1-3.8.1-1.3,1.4-8.1,2.8-15.1s2.6-13,2.6-13.3,2.1-.5,4.8-.5c5.1,0,11.2-2.9,11.2-5.4C699-527.8,697.7-527.9,695.1-525.9Z" fill="#f42427"></path><path id="Caminho_1446" data-name="Caminho 1446" d="M296.7-524.1c-11.2.5-13.1.9-14.3,2.5-2,2.8-1.7,3.9.5,2.6,3.1-1.6,6.1-1.2,6.1.7-.1,4.9-2.6,11.4-4.9,12.6-3.4,1.7-3.8,3.6-.6,2.9,2.3-.4,2.5-.2,2.1,1.9-2.9,13.7-3.8,19-3.3,19.5,1.2,1.2,5.7-.7,5.7-2.4a99.4,99.4,0,0,1,1.7-10.5l1.6-8.7h4.1c4.2,0,8.7-1.7,9.3-3.5.2-.6-2.2-.9-6.3-.7-6.2.4-6.6.3-6-1.6a52.391,52.391,0,0,0,1.4-6.3l.7-4.4,6.5-.6a66.815,66.815,0,0,0,8.2-1.3c2-.9,3.3-3.7,1.5-3.4C310-524.7,303.7-524.4,296.7-524.1Z" fill="#f42427"></path><path id="Caminho_1447" data-name="Caminho 1447" d="M375.4-524.2a14.487,14.487,0,0,0-2.8,3.9c-1.3,2.5-2.3,3.3-4.4,3.3-2.7,0-5.2,1.5-5.2,3.1,0,.4,1.6.5,3.6.2l3.7-.6-.7,3.9c-2.3,11.7-21.3,23.3-26.2,15.9-2-3-2.2-2.8,4-4.3,8.9-2.3,13.6-7.4,11.6-12.7-1.8-4.7-11.2-4.6-16.2.2-4.3,4-5.8,7.5-5.8,13.3,0,4.1.5,5.6,2.5,7.5,4.8,4.9,16.4,2.3,24.3-5.5l3.2-3.2v2.9c0,4.4,3.4,8.3,7.4,8.3,4.9,0,10.6-4.4,10.6-8.3,0-1.7-.5-1.5-3.5,1.2-4,3.5-3.9,3.5-6.6,2.1-2.3-1.3-2.5-6.6-.5-15l1.2-5.5,9-.5c6.8-.4,8.9-.8,9.2-2,.2-1.3-1.1-1.4-8.3-1.2-4.7.2-8.5,0-8.5-.5a18.44,18.44,0,0,1,1.5-3.3,15.723,15.723,0,0,0,1.5-3.3C380-525.2,376.8-525.2,375.4-524.2ZM354-509.5c0,2.9-4.1,7.2-7.7,8.1-3,.8-3.7.1-2.8-2.5C345.6-510.6,354-515,354-509.5Z" fill="#f42427"></path><path id="Caminho_1448" data-name="Caminho 1448" d="M557.4-524.2a14.485,14.485,0,0,0-2.8,3.9c-1.3,2.5-2.3,3.3-4.4,3.3-2.7,0-5.2,1.5-5.2,3.1,0,.4,1.6.5,3.6.2l3.7-.6-.7,3.9c-.8,4.3-5.2,11.7-9.2,15.5-2.5,2.3-2.6,2.4-4,.5-.9-1.3-1.4-4.5-1.4-9.1,0-15.7-9.1-15.5-17.2.6l-2.8,5.4.3-7.5c.2-7.4.2-7.5-2.3-7.5-1.9,0-2.6.6-3,2.7-.7,3.7-7.3,11.4-12.8,14.9-6.8,4.3-14.2,3.7-14.2-1.1,0-1.1,1.6-2,5.3-3,5.8-1.5,11.7-6.4,11.7-9.9,0-5.3-7.7-7.9-14-4.6-3.4,1.8-7.5,6.9-8.3,10.5-.4,1.5-2.5,4.6-4.7,7-3.7,4-4.2,4.2-5.6,2.8s-1.5-2.4-.6-6.5c2.1-9.4,2.2-11.9.9-13.7-2.3-3.2-7.2-1.2-11.7,4.7a49.868,49.868,0,0,0-5,8.1c-1.7,4.5-2,2.7-.8-4.5.6-3.6.9-7.3.5-8.2-1.8-4.6-9.6.8-14.1,9.7-1.6,3.1-2.9,5.6-3.1,5.6a56.218,56.218,0,0,1,.3-6.9c.5-7.3-.2-8.7-3.9-7.6-1.3.4-1.8,1.2-1.4,2.4.5,1.8-8.9,13.2-12.7,15.2-4.6,2.5-6.1-3.7-3.4-14.1.8-3,1.2-5.7,1-5.9-.2-.3-1.7,0-3.2.5a9.523,9.523,0,0,1-5.8.1c-5.1-1.6-9.8-.1-13.8,4.3-5.4,6-7.2,16.2-3.5,20.6,3.2,3.9,11.5-.3,15.9-8l3-5.1v3.7c0,11.8,7.4,12.6,17.4,1.9,2.6-2.9,4.9-5.1,5.1-4.9a36.4,36.4,0,0,1-.6,6.2c-.9,7-.7,7.6,2.8,7.6,1.5,0,2.4-.3,2-.6-1.6-1.6,9.2-20.4,11.8-20.4,1.6,0,1.5.1-1,13-.7,3.6-1.1,6.8-.8,7.2,1.3,2.2,4.1.3,7.2-5,7.6-12.9,14.3-19.4,12.7-12.5-1.5,7.2-1.9,15.3-.6,16.8,2.3,2.7,7.3,1.9,11-2,3.7-3.8,5-4.3,5-2,0,2.9,4.2,5.5,8.9,5.5,6.3-.1,11.8-2.8,18-8.9l5.2-5.3-.3,6.9c-.3,6.2-.1,6.8,1.7,7,1.6.2,2.8-1.4,5.8-7.5,4.7-9.6,8.8-14.8,11.1-13.9,1.3.5,1.6,2.1,1.6,7.6,0,14.5,4.6,18,12.7,9.6,2.6-2.8,4.3-3.9,4.3-3a13.763,13.763,0,0,0,1.5,4.5c1.3,2.5,2.2,3,5.3,3,5.5,0,11.2-4.2,11.2-8.3,0-1.7-.5-1.5-3.5,1.2-3.9,3.4-5.4,3.8-7.3,1.9-1.5-1.5-1.4-8.6.1-15.3l1.2-5,9-.5c6.9-.4,9-.8,9.3-2,.2-1.3-1.1-1.4-8.3-1.2-4.7.2-8.5,0-8.5-.5a18.442,18.442,0,0,1,1.5-3.3,15.723,15.723,0,0,0,1.5-3.3C562-525.2,558.8-525.2,557.4-524.2ZM405.6-510.5l3.5,1.5-1.8,3.1c-2.6,4.6-10.3,12.9-11.9,12.9-2.2,0-3.3-3.2-2.5-7.5.9-5,2.5-8,5.3-9.9C401-512.4,401.2-512.4,405.6-510.5Zm90.8.1c.9,2.2-1,5.2-4.7,7.4-5.6,3.4-8,2.4-5.6-2.3C489.2-511.2,495-514.1,496.4-510.4Z" fill="#f42427"></path><path id="Caminho_1449" data-name="Caminho 1449" d="M773.3-521.6c-4,2-5.9,5.6-3,5.6,1.5,0,8.7-5.8,8.7-7.1C779-524.3,778.3-524.1,773.3-521.6Z" fill="#f42427"></path><path id="Caminho_1450" data-name="Caminho 1450" d="M583.3-515c-.3,1.1-1.2,2-2,2-.9,0-3.3,1-5.4,2.2-5,2.8-7.3,7.6-6.6,13.7.7,6.2,4.1,9.1,10.5,9.1,8,0,14.4-5.7,15.8-14,.6-3.4.7-3.5,4.9-3.2,4.4.4,8.5-1,8.5-2.9,0-.6-1.6-.8-4.2-.4-4.9.7-9.6-.7-11.8-3.5-.8-1.1-3.2-2.6-5.3-3.5C584-517,583.8-517,583.3-515Zm5.1,6.5c1.5,1.2,1.8,2.3,1.4,6.5-1,10.3-10.6,15-14.7,7.2-1.7-3.3-.4-8.1,3.2-12C581.7-510.3,585.2-510.9,588.4-508.5Z" fill="#f42427"></path><path id="Caminho_1451" data-name="Caminho 1451" d="M872.3-515.1c-.3,1.1-1.7,2.1-3.4,2.5-4.8.9-8.1,3.8-10.4,9.1-2.1,4.7-7.8,11.5-9.7,11.5-1.8,0-2-3.3-.6-10.8,1.7-9.1,1-12.2-2.6-12.2-3.5,0-7.6,3.8-12,11.4-2.1,3.6-3.9,6.6-4,6.6s.5-3.3,1.3-7.3c1.7-8.5,1.2-10.7-2.4-10.7-3.2,0-7.6,4.5-11.6,12l-2.9,5.5.6-7.1c.4-4.8.3-7.4-.5-7.8-1.8-1.1-5.1.4-5.1,2.3,0,1.7-4.4,6.4-8.9,9.4-2.4,1.6-2.5,1.6-4.8-2.5l-2.4-4.1,2.2-2.3c2.3-2.5,2-5-.7-6.1-1.9-.7-6.4,3.7-6.4,6.3,0,4.1-12.2,17.4-15.9,17.4-3,0-3.2-1.1-1.8-9.2,1.6-8.7,1.3-9.8-1.9-9.8-1.9,0-2.4.5-2.4,2.6a62.181,62.181,0,0,1-1.2,9c-.9,5.2-.9,6.9.2,8.9,3.1,5.7,13.1,1.7,20-7.9,1.9-2.5,3.6-4.6,4-4.6,1.3,0,4.3,6.4,3.2,6.8-2.1.7-7.5,4.7-8.6,6.4-.8,1.3-.6,2.2.8,3.7,2.3,2.5,5.6,2.7,10.2.5a9.83,9.83,0,0,0,5.1-9.5c-.2-1.2,8.1-8.9,9.6-8.9.2,0,0,3-.5,6.7-.9,7.7-.6,9.3,1.9,9.2,1.2,0,3-2.5,5.5-7.7a80.552,80.552,0,0,1,6.1-10.6c4-4.9,4.7-2.6,2.4,8-1.6,7.8-1.8,9.7-.7,10.4,2,1.2,3.5.3,5.2-3.3,5.1-10.4,16.4-22.5,14.4-15.5-1.2,4.3-1.9,13.6-1.2,16.2,1,4,6.5,3.6,11.3-.8l3.7-3.3,3.2,3.3c2.7,3,3.8,3.4,8,3.4,7.8,0,13.9-5.3,15.2-13.2l.7-4.2,5,.3c5.2.2,9.4-1.7,8.1-3.7-.5-.8-1.3-.8-3.1,0-3.4,1.5-9,.2-12.9-3.2a25.983,25.983,0,0,0-6-4C873.2-516.9,872.7-516.7,872.3-515.1Zm4.2,6.3c1.9.9,2.5,1.9,2.5,4.4,0,7.3-4.4,13.4-9.6,13.4-7.8,0-8.6-12.2-1.2-17.4C870.9-510.3,873-510.4,876.5-508.8ZM795-492.4c0,2.7-2,5.4-4,5.4-3.2,0-3.5-2.2-.6-4.7C793.6-494.4,795-494.6,795-492.4Z" fill="#f42427"></path><path id="Caminho_1452" data-name="Caminho 1452" d="M328.9-512.7c-1.9,1.2-4.9,4.8-6.8,8s-3.6,5.5-3.8,5.3c-.3-.2.1-3,.7-6.1,1.3-6.2.7-7.8-2.8-6.9-1.8.5-2.2,1.3-2.2,4.5a72.63,72.63,0,0,1-1.5,10.9c-.8,4-1.3,7.6-.9,8.1.3.5,1.6.9,2.9.9,1.8,0,2.5-.7,3-3,.9-3.9,7.5-14.1,11-16.8,2.2-1.7,3.1-2,4.2-1,1.1.9,1.9.7,3.5-.9C340.9-514.4,335-516.8,328.9-512.7Z" fill="#f42427"></path><path id="Caminho_1453" data-name="Caminho 1453" d="M629-514.3c-2.3.8-7,5.5-8.6,8.5-.8,1.5-1.4,5-1.4,7.8,0,4.1.5,5.6,2.5,7.5,4.7,4.8,15.2,2.7,22.9-4.4,3.6-3.3,10.6-12,10.6-13.2,0-2.3-2.9-.4-6.5,4.2-7.1,9.3-18.3,14.7-22.3,10.7-2.5-2.5-1.3-4.4,3.8-5.7,7.3-1.9,11-5.3,11-10.2,0-2.8-.5-4.1-1.9-4.9C637-515,631.6-515.2,629-514.3Zm7,5.2a5.626,5.626,0,0,1-2.8,5c-3.6,2.5-8.2,3.7-8.2,2.1,0-3.7,5.5-10,8.7-10C635.6-512,636-511.5,636-509.1Z" fill="#f42427"></path><path id="Caminho_1454" data-name="Caminho 1454" d="M721-513.4c0,5-12.3,22.1-15.2,21.2-2-.7-2.1-5.6-.3-12.5,2-7.3,1.6-9.3-2-9.3-1.5,0-2.4.4-2.1.9.4.5-.1,3.5-.9,6.7-1.8,7-2,15.5-.3,17.2.7.7,2.7,1.2,4.5,1.2,3.8,0,9.6-5.2,12.1-10.9l1.6-3.6.6,5.1c.6,5.7,2.3,8.4,5.2,8.4,3.1,0,7.4-2.7,10.7-6.6l3-3.7-.6,5.6c-.6,5.5-.5,5.7,1.8,5.7,2,0,2.9-1.2,5.3-6.6a47.542,47.542,0,0,1,7.2-11c3.6-3.9,4.5-4.4,6.2-3.5,1.5.8,2.3.6,3.7-.9,3.8-4.2-1.4-6.7-6.7-3.2-3.1,2-5.8,5.3-9.4,11.4l-2.6,4.3.7-3.5c2.1-11.2,1.9-12.4-2.4-11.3-1.4.4-2,1.1-1.7,2,1.4,3.5-9.1,16.6-12.8,16.1-2.7-.4-3.3-6.4-1.3-14.2.8-3,1.2-5.7.9-6C724.9-515.7,721-514.9,721-513.4Z" fill="#f42427"></path></g></svg> 