<?xml version="1.0" encoding="UTF-8"?> <svg xmlns="http://www.w3.org/2000/svg" id="Camada_1" data-name="Camada 1" width="576.2" height="511.7" viewBox="0 0 576.2 511.7"><defs><style> .cls-1 { fill: #fff; } </style></defs><title>continuo-branco</title><g><path class="cls-1" d="M407.8,173.7c-2.3-23-6.1-41-12-48-24.5-29.1-196.2-31.2-215.7,0-4.8,7.6-8.1,25.5-10.3,48.1a14.4,14.4,0,0,0-12.9,14.4v28.2a14.5,14.5,0,0,0,9.5,13.6c-1.3,44.5-.2,90.9,1.7,114,0,17.8,12,14.9,12,14.9h11.2v19.2c0,7.6,7.9,13.8,17.6,13.8s17.5-6.2,17.5-13.8V358.9H357v19.2c0,7.6,7.8,13.8,17.5,13.8s17.6-6.2,17.6-13.8V358.9h3.7s14,1.9,14.9-6.5c0-23,1.5-74,.3-122.2a14.3,14.3,0,0,0,10.2-13.8V188.2A14.5,14.5,0,0,0,407.8,173.7ZM222,129.8H353.8v19.9H222Zm1.9,206.4a18.8,18.8,0,1,1,18.8-18.8A18.8,18.8,0,0,1,223.9,336.2Zm129.2,0a18.8,18.8,0,1,1,18.8-18.8A18.8,18.8,0,0,1,353.1,336.2Zm23.8-82h-178V160.8h178Z" transform="translate(0 -2.2)"></path><g><path class="cls-1" d="M482.9,393.7a18.5,18.5,0,0,0-25.9,3.5l-3.6,4.7c-18.6,22.6-43.5,41.1-74.3,54.7l-.5.3C330,480,273.2,483.2,218.7,465.8c-47.9-15.6-86.9-45.8-115.8-89.7-21.5-34.5-32.8-72-33.6-111.5v-2.9H91.9a9.6,9.6,0,0,0,6.8-16.3L57.5,204.2a9.6,9.6,0,0,0-13.5,0L2.8,245.4a9.6,9.6,0,0,0,6.8,16.3H32.3c.3,47.7,13.5,92.8,39.3,134.2l.3.3c33.7,51.2,79.2,86.5,135.4,104.8a268,268,0,0,0,81.4,12.8,244.3,244.3,0,0,0,105.6-23.5c38.5-17.2,69.5-40.9,92.1-70.7A18.5,18.5,0,0,0,482.9,393.7Z" transform="translate(0 -2.2)"></path><path class="cls-1" d="M566.6,257.9H543.9c0-5-.1-10.2-.4-15.2A255.8,255.8,0,0,0,89.1,97.2a18.5,18.5,0,1,0,28.7,23.3l4.2-5.1A219,219,0,0,1,409.1,75.5a221.8,221.8,0,0,1,68.1,72.2,218.7,218.7,0,0,1,29.4,97.2l.3,6.5c.1,2.2.1,4.4.1,6.5H484.3a9.6,9.6,0,0,0-6.8,16.4l41.2,41.1a9.4,9.4,0,0,0,13.5,0l41.2-41.1A9.6,9.6,0,0,0,566.6,257.9Z" transform="translate(0 -2.2)"></path></g></g></svg> 