<?xml version="1.0" encoding="UTF-8"?> <svg xmlns="http://www.w3.org/2000/svg" height="512px" viewBox="0 0 64 64" width="512px"><g><path d="m60 42.184v-9.184a3 3 0 0 0 -3-3v-23a5.006 5.006 0 0 0 -5-5h-16a4.982 4.982 0 0 0 -4 2.031 4.982 4.982 0 0 0 -4-2.031h-16a5.006 5.006 0 0 0 -5 5v23a3 3 0 0 0 -3 3v9.184a3 3 0 0 0 -2 2.816v4a3 3 0 0 0 3 3h8v4a1 1 0 0 0 -.895.553l-2 4a1 1 0 0 0 .895 1.447h18a1 1 0 0 0 .895-1.447l-2-4a1 1 0 0 0 -.895-.553v-4h11v4a1 1 0 0 0 -.9.553l-2 4a1 1 0 0 0 .9 1.447h18a1 1 0 0 0 .9-1.447l-2-4a1 1 0 0 0 -.9-.553v-4h7a3 3 0 0 0 3-3v-4a3 3 0 0 0 -2-2.816zm-2-9.184v9h-4v-9a1 1 0 0 1 1-1h2a1 1 0 0 1 1 1zm-22 9v-6h16v6zm-24 0v-6h16v6zm21-10a1 1 0 0 1 1 1v9h-4v-9a1 1 0 0 1 1-1zm3-28h16a3 3 0 0 1 3 3v23a3 3 0 0 0 -3 3v1h-16v-1a3 3 0 0 0 -3-3v-23a3 3 0 0 1 3-3zm-27 3a3 3 0 0 1 3-3h16a3 3 0 0 1 3 3v23a3 3 0 0 0 -3 3v1h-16v-1a3 3 0 0 0 -3-3zm-3 26a1 1 0 0 1 1-1h2a1 1 0 0 1 1 1v9h-4zm21.382 27h-14.764l1-2h12.764zm-2.382-4h-10v-4h10zm27.382 4h-14.764l1-2h12.764zm-2.382-4h-10v-4h10zm10-7a1 1 0 0 1 -1 1h-54a1 1 0 0 1 -1-1v-4a1 1 0 0 1 1-1h54a1 1 0 0 1 1 1z" data-original="#000000" class="active-path" data-old_color="#000000" fill="#00006A"></path><path d="m15 10h2v2h-2z" data-original="#000000" class="active-path" data-old_color="#000000" fill="#00006A"></path><path d="m23 10h2v2h-2z" data-original="#000000" class="active-path" data-old_color="#000000" fill="#00006A"></path><path d="m15 18h2v2h-2z" data-original="#000000" class="active-path" data-old_color="#000000" fill="#00006A"></path><path d="m23 18h2v2h-2z" data-original="#000000" class="active-path" data-old_color="#000000" fill="#00006A"></path><path d="m39 10h2v2h-2z" data-original="#000000" class="active-path" data-old_color="#000000" fill="#00006A"></path><path d="m47 10h2v2h-2z" data-original="#000000" class="active-path" data-old_color="#000000" fill="#00006A"></path><path d="m39 18h2v2h-2z" data-original="#000000" class="active-path" data-old_color="#000000" fill="#00006A"></path><path d="m47 18h2v2h-2z" data-original="#000000" class="active-path" data-old_color="#000000" fill="#00006A"></path></g></svg> 