<?xml version="1.0" encoding="UTF-8"?> <svg xmlns="http://www.w3.org/2000/svg" height="512px" viewBox="-19 0 511 511.99878" width="512px"><g><path d="m129.304688 164.8125-57.988282-42.75c-3.363281-2.484375-7.136718-1.714844-10.113281.375-2.972656 2.09375-4.96875 5.386719-3.769531 9.390625l20.671875 69.015625c1.339843 4.585938 5.417969 2.523438 8.390625.433594 2.976562-2.09375 5.183594-4.324219 3.78125-8.996094l-4.097656-13.289062 19.828124-13.957032 11.128907 8.34375c3.925781 2.898438 6.769531 1.570313 9.742187-.523437 2.972656-2.089844 6.289063-5.234375 2.425782-8.042969zm-47.03125 1.160156-4.9375-16.207031c-1.363282-4.429687-2.019532-6.125-4.015626-10.113281 3.078126 3.226562 4.453126 4.414062 8.164063 7.195312l13.585937 10.117188zm0 0" data-original="#000000" class="active-path" data-old_color="#000000" fill="#00006A"></path><path d="m436.917969 156.160156h-33.128907v-97.367187c0-20.496094-16.675781-37.167969-37.167968-37.167969h-102.714844c-4.105469 0-7.433594 3.328125-7.433594 7.433594 0 4.105468 3.328125 7.433594 7.433594 7.433594h102.714844c12.296875 0 22.300781 10.003906 22.300781 22.300781v97.371093h-73.175781l-98.808594-140.398437c-11.792969-16.761719-35.027344-20.800781-51.789062-9.007813l-148.863282 104.765626c-8.117187 5.714843-13.527344 14.25-15.226562 24.03125-1.703125 9.78125.511718 19.640624 6.222656 27.757812l162.011719 230.207031c5.714843 8.117188 14.25 13.527344 24.03125 15.226563 2.148437.375 4.304687.558594 6.445312.558594 6.28125 0 12.421875-1.617188 17.945313-4.695313v70.21875c0 20.496094 16.671875 37.171875 37.167968 37.171875h182.035157c20.492187 0 37.167969-16.675781 37.167969-37.171875v-281.5c0-20.492187-16.671876-37.167969-37.167969-37.167969zm-224.394531 234.207032c-4.871094 3.425781-10.785157 4.75-16.65625 3.734374-5.867188-1.023437-10.988282-4.269531-14.417969-9.140624l-162.007813-230.203126c-3.429687-4.871093-4.757812-10.785156-3.734375-16.65625 1.019531-5.871093 4.265625-10.988281 9.136719-14.417968l148.863281-104.765625c10.054688-7.078125 23.996094-4.652344 31.074219 5.402343l92.78125 131.839844h-42.679688c-20.492187 0-37.167968 16.675782-37.167968 37.171875v58.21875c-19.878906-1.4375-35.398438-3.160156-42.3125-4.726562-15.886719-3.589844-22.8125-6.988281-28.5-13.964844-6.5-7.980469-7.023438-15.78125-6.3125-20.917969.972656-7.085937 4.941406-13.550781 10.878906-17.730468 6.753906-4.753907 15.34375-5.621094 23.507812-2.398438l.300782.121094c2.355468.945312 5.039062.628906 7.105468-.851563 2.070313-1.480469 3.238282-3.914062 3.097657-6.453125l-.015625-.246094c-.285156-8.757812 3.445312-16.519531 10.242187-21.304687 3.402344-2.394531 7.363281-3.964844 11.460938-4.546875 4.066406-.574219 6.894531-4.335938 6.316406-8.402344-.574219-4.066406-4.332031-6.898437-8.402344-6.316406-6.414062.90625-12.617187 3.367188-17.929687 7.105469-8.425782 5.929687-13.933594 14.597656-15.832032 24.574219-10.042968-1.574219-20.039062.671874-28.410156 6.5625-9.296875 6.542968-15.515625 16.699218-17.050781 27.859374-1.570313 11.394532 1.8125 22.878907 9.519531 32.335938 9.039063 11.09375 19.886719 15.265625 36.742188 19.078125 10.136718 2.289063 30.746094 4.070313 45.59375 5.128906v120.253907zm246.695312 84.464843c0 12.296875-10.003906 22.300781-22.300781 22.300781h-182.035157c-12.296874 0-22.300781-10.003906-22.300781-22.300781v-281.5c0-12.296875 10.003907-22.304687 22.300781-22.304687h182.035157c12.296875 0 22.300781 10.007812 22.300781 22.304687zm0 0" data-original="#000000" class="active-path" data-old_color="#000000" fill="#00006A"></path><path d="m302.679688 262.5c1.542968 4.628906 4.628906 5.183594 8.265624 5.183594 3.636719 0 8.15625-.664063 6.613282-5.183594l-22.816406-68.335938c-1.320313-3.96875-4.851563-5.511718-8.488282-5.511718-3.636718 0-7.164062 1.542968-8.484375 5.511718l-22.816406 68.335938c-1.542969 4.519531 2.976563 5.183594 6.613281 5.183594 3.636719 0 6.722656-.554688 8.265625-5.183594l4.300781-13.226562h24.25zm-24.25-26.121094 5.292968-16.09375c1.433594-4.40625 1.875-6.171875 2.535156-10.578125.660157 4.40625 1.101563 6.171875 2.535157 10.578125l5.289062 16.09375zm0 0" data-original="#000000" class="active-path" data-old_color="#000000" fill="#00006A"></path><path d="m392.480469 305.152344c-8.945313-9.894532-32.457031-29-42.152344-36.753906-3.882813-3.105469-9.308594-3.105469-13.199219-.007813-9.699218 7.742187-33.226562 26.820313-42.214844 36.761719-11.589843 12.820312-18.0625 22.472656-19.070312 36.75-.863281 12.167968 2.984375 23.503906 10.828125 31.921875 7.679687 8.242187 18.605469 12.96875 29.976563 12.96875.601562 0 1.199218-.015625 1.796874-.042969l-4.902343 7.140625c-.058594.082031-.117188.167969-.167969.253906-2.796875 4.457031-2.957031 10.085938-.410156 14.6875 2.546875 4.605469 7.398437 7.464844 12.65625 7.464844h36.148437c5.261719 0 10.113281-2.859375 12.660157-7.464844 2.542968-4.605469 2.386718-10.230469-.410157-14.6875-.054687-.085937-.109375-.171875-.167969-.253906l-4.898437-7.140625c.59375.027344 1.191406.042969 1.792969.042969 11.371094 0 22.296875-4.726563 29.976562-12.96875 7.84375-8.417969 11.691406-19.753907 10.828125-31.921875-1.011719-14.277344-7.480469-23.929688-19.070312-36.75zm-66.082031 96.277344 17.296874-25.195313 17.296876 25.195313zm63.445312-37.742188c-4.878906 5.234375-11.839844 8.238281-19.101562 8.238281-7.453126 0-14.242188-3.378906-19.117188-9.519531-1.9375-2.4375-4.816406-3.832031-7.894531-3.832031-3.097657 0-5.980469 1.40625-7.914063 3.855469-.460937.585937-.945312 1.132812-1.441406 1.667968-.308594.292969-.613281.59375-.898438.921875-4.585937 4.472657-10.445312 6.90625-16.828124 6.90625-7.261719 0-14.222657-3.003906-19.101563-8.238281-3.535156-3.792969-7.597656-10.472656-6.875-20.738281.636719-8.980469 4.347656-15.742188 15.269531-27.824219 6.351563-7.027344 23.199219-21.242188 37.78125-32.964844 14.578125 11.742188 31.40625 25.96875 37.730469 32.964844 10.921875 12.082031 14.632813 18.84375 15.265625 27.824219.726562 10.265625-3.339844 16.945312-6.875 20.738281zm0 0" data-original="#000000" class="active-path" data-old_color="#000000" fill="#00006A"></path></g></svg> 